<svg xmlns="http://www.w3.org/2000/svg" viewBox="0 0 512 512" fill="none">
  <rect width="512" height="512" rx="64" fill="url(#bg)"/>
  <circle cx="410" cy="98" r="68" fill="#fff" fill-opacity=".14"/>
  <circle cx="94" cy="402" r="82" fill="#fff" fill-opacity=".11"/>
  <path d="M86 124h136a22 22 0 0 1 22 22v84H64v-84a22 22 0 0 1 22-22Z" fill="#D8E7FF" fill-opacity=".72"/>
  <path d="M100 138h108v54H100z" fill="#F6FBFF"/>
  <path d="M120 158h66M120 182h42" stroke="#8EA7D7" stroke-width="10" stroke-linecap="round"/>
  <path d="M254 112c62 0 122 41 122 121v127H138V233c0-80 47-121 116-121Z" fill="#20324D"/>
  <circle cx="256" cy="178" r="78" fill="#F0C3A5"/>
  <path d="M184 174c6-59 41-96 93-96 39 0 82 23 103 71-22 10-46 13-74 11-43-4-75-18-97-43-6 18-14 37-25 57Z" fill="#152038"/>
  <path d="M228 212c14 12 38 18 55 18 17 0 38-6 52-18" stroke="#D27E74" stroke-width="8" stroke-linecap="round"/>
  <path d="M172 340c24-46 62-70 114-70 52 0 90 24 114 70v108H172V340Z" fill="#385B88"/>
  <path d="M210 338c18 12 44 18 76 18 33 0 61-6 86-18" stroke="#7395C9" stroke-width="8" stroke-linecap="round"/>
  <rect x="236" y="272" width="42" height="62" rx="20" fill="#EEAF8E"/>
  <defs>
    <linearGradient id="bg" x1="44" y1="42" x2="470" y2="468" gradientUnits="userSpaceOnUse">
      <stop stop-color="#D6E3FF"/>
      <stop offset=".58" stop-color="#C9DAF5"/>
      <stop offset="1" stop-color="#A7C4EA"/>
    </linearGradient>
  </defs>
</svg>
